<svg xmlns="http://www.w3.org/2000/svg" width="134.014" height="26.094" viewBox="0 0 134.014 26.094">
  <g id="com_logo" transform="translate(-144.197 573.364)">
    <g id="g937" transform="translate(144.197 -573.364)">
      <g id="g959" transform="translate(18.964 1.44)">
        <path id="path961" d="M-61.926-31.188-60.161-36a9.552,9.552,0,0,0-11.313,5.969,9.549,9.549,0,0,0,2.066,9.893l0,0,1.82,4.389.886-2.414,1.765-4.81a4.488,4.488,0,0,1-1.78-5.316,4.488,4.488,0,0,1,4.8-2.9" transform="translate(72.059 36.292)" fill="#fff"/>
      </g>
      <g id="g963" transform="translate(26.168 0)">
        <path id="path965" d="M-56.517-26.826h0l-1.82-4.389-.886,2.413-1.765,4.81a4.488,4.488,0,0,1,1.78,5.316,4.488,4.488,0,0,1-4.8,2.9l-1.765,4.81a9.552,9.552,0,0,0,11.314-5.969,9.549,9.549,0,0,0-2.065-9.892" transform="translate(65.766 31.216)" fill="#fff"/>
      </g>
      <g id="g967" transform="translate(114.69 1.466)">
        <path id="path969" d="M-58.793-85.078a4.118,4.118,0,0,1-4.292-4.4,4.118,4.118,0,0,1,4.292-4.4,4.118,4.118,0,0,1,4.292,4.4,4.118,4.118,0,0,1-4.292,4.4M-54.5-98.5v1.7A6.776,6.776,0,0,0-59.876-99a8.438,8.438,0,0,0-5.286,1.972l-3.252,8.879c.581,4.714,4.211,8.194,8.538,8.194a6.774,6.774,0,0,0,5.374-2.2v1.7h5.411V-98.5Z" transform="translate(68.414 99)" fill="#fff"/>
      </g>
      <g id="g971" transform="translate(40.04 1.465)">
        <path id="path973" d="M-159.142-114.937l1.4-3.753v-7.482c0-4.574-2.744-7.575-6.952-7.575A6.025,6.025,0,0,0-170-131.331a5.444,5.444,0,0,0-4.794-2.415,5.616,5.616,0,0,0-4.9,2.2v-1.967h-3.855l-1.634,4.461v14.119H-181l1.3-3.484v-6.835c0-2.159,1.025-3.44,2.855-3.44,1.756,0,2.635,1.171,2.635,3v10.758h4.259l1.229-3.294v-7.025c0-2.159,1.025-3.44,2.854-3.44,1.756,0,2.635,1.171,2.635,3v10.758Z" transform="translate(185.185 133.746)" fill="#fff"/>
      </g>
      <g id="g975" transform="translate(89.01 1.71)">
        <path id="path977" d="M-33.541-97.134v-15.9h-4.136l-1.353,3.616v14.956h4.489Z" transform="translate(39.03 113.029)" fill="#fff"/>
      </g>
      <g id="g979" transform="translate(67.845 1.694)">
        <path id="path981" d="M-84.827,0l-4.286,13.611-.194-3.467L-92.635,0h-6.074l6.862,18.58h6.221L-78.753,0Z" transform="translate(98.709)" fill="#fff"/>
      </g>
      <g id="g983" transform="translate(0 1.466)">
        <path id="path985" d="M-57.952-83.756a3.969,3.969,0,0,1-4.076-4.184,3.968,3.968,0,0,1,4.076-4.183,3.735,3.735,0,0,1,3.5,2.02l4.725-2.741a9.292,9.292,0,0,0-8.152-4.617,9.76,9.76,0,0,0-7.092,3.011l-2.464,6.731a9.337,9.337,0,0,0,9.556,9.3,9.207,9.207,0,0,0,8.152-4.653l-4.725-2.705a3.7,3.7,0,0,1-3.5,2.02" transform="translate(67.435 97.463)" fill="#fff"/>
      </g>
      <g id="g987" transform="translate(96.387 1.694)">
        <path id="path989" d="M-84.9,0l-4.284,13.611-.194-3.467L-92.716,0H-98.79l6.875,18.58h6.221L-78.823,0Z" transform="translate(98.79)" fill="#fff"/>
      </g>
      <g id="g991" transform="translate(74.707 22.87)">
        <path id="path993" d="M-6.33-11.8H-5.5l-.306-.681c-.018-.044-.036-.093-.055-.15s-.038-.119-.057-.189q-.024.1-.052.183c-.019.056-.037.108-.056.156Zm1.342,1.173-.339-.769H-6.51l-.347.769h-.51l1.446-3.1,1.444,3.1Z" transform="translate(7.366 13.733)" fill="#fff"/>
      </g>
      <g id="g995" transform="translate(78.824 22.988)">
        <path id="path997" d="M-7.813-2.518V.056H-8.3V-2.518h-.793V-2.93h2.067v.412Z" transform="translate(9.092 2.93)" fill="#fff"/>
      </g>
      <g id="g999" transform="translate(81.263 22.988)">
        <path id="path1001" d="M0-18.244V-21.23H1.666v.412H.485v.748H1.666v.426H.485v.965H1.666v.434Z" transform="translate(0 21.23)" fill="#fff"/>
      </g>
      <g id="g1003" transform="translate(83.356 22.919)">
        <path id="path1005" d="M-15.441-4.863a1.494,1.494,0,0,0-.436-.263,1.34,1.34,0,0,0-.482-.088,1.065,1.065,0,0,0-.8.314,1.115,1.115,0,0,0-.307.814,1.111,1.111,0,0,0,.3.8,1,1,0,0,0,.753.314,1.375,1.375,0,0,0,.5-.094,1.6,1.6,0,0,0,.46-.284V-2.8a1.439,1.439,0,0,1-.426.21,1.731,1.731,0,0,1-.5.069A1.745,1.745,0,0,1-17-2.636a1.47,1.47,0,0,1-.511-.33,1.468,1.468,0,0,1-.336-.5,1.64,1.64,0,0,1-.117-.619,1.624,1.624,0,0,1,.117-.617,1.491,1.491,0,0,1,.34-.506A1.5,1.5,0,0,1-17-5.546a1.68,1.68,0,0,1,.622-.113,1.632,1.632,0,0,1,.5.075,1.756,1.756,0,0,1,.462.231Z" transform="translate(17.968 5.659)" fill="#fff"/>
      </g>
      <g id="g1007" transform="translate(86.484 22.988)">
        <path id="path1009" d="M0-18.244V-21.23H.485v1.1H1.954v-1.1h.485v2.986H1.954v-1.45H.485v1.45Z" transform="translate(0 21.23)" fill="#fff"/>
      </g>
      <g id="g1011" transform="translate(90.581 22.862)">
        <path id="path1013" d="M-16.637-10.007q-.008-.034-.026-.192-.017-.131-.028-.216a1.483,1.483,0,0,1-.053.2,1.752,1.752,0,0,1-.084.208l-.781,1.591-.781-1.623q-.049-.1-.084-.194c-.024-.062-.045-.124-.062-.185a1.948,1.948,0,0,1-.015.2,2.18,2.18,0,0,1-.04.215l-.32,1.47h-.447l.706-3.112.881,1.884c.014.03.034.079.062.149s.061.155.1.257a3.349,3.349,0,0,1,.135-.327c.016-.035.028-.062.037-.081l.861-1.882.722,3.112h-.451Z" transform="translate(19.36 11.645)" fill="#fff"/>
      </g>
      <g id="g1015" transform="translate(94.317 22.87)">
        <path id="path1017" d="M-6.331-11.8H-5.5l-.306-.681c-.018-.044-.036-.093-.055-.15s-.038-.119-.056-.189q-.025.1-.052.183c-.018.056-.037.108-.056.156Zm1.342,1.173-.339-.769H-6.51l-.347.769h-.51l1.446-3.1,1.444,3.1Z" transform="translate(7.367 13.733)" fill="#fff"/>
      </g>
      <g id="g1019" transform="translate(97.488 22.988)">
        <path id="path1021" d="M0-18.244V-21.23H.485v1.1H1.954v-1.1h.485v2.986H1.954v-1.45H.485v1.45Z" transform="translate(0 21.23)" fill="#fff"/>
      </g>
      <path id="path1023" d="M858.506-409.9h.485v2.986h-.485Z" transform="translate(-758.052 432.888)" fill="#fff"/>
      <g id="g1025" transform="translate(101.47 22.87)">
        <path id="path1027" d="M0-18.967v-3.1l1.9,1.825q.078.078.157.165t.167.2v-2.07H2.67v3.1L.734-20.709c-.052-.05-.1-.1-.15-.159s-.094-.114-.138-.175v2.076Z" transform="translate(0 22.071)" fill="#fff"/>
      </g>
      <g id="g1029" transform="translate(104.657 22.986)">
        <path id="path1031" d="M-2.966-15.58h.408a2.1,2.1,0,0,0,.5-.045.737.737,0,0,0,.293-.151.9.9,0,0,0,.254-.36,1.36,1.36,0,0,0,.084-.5,1.361,1.361,0,0,0-.084-.5.9.9,0,0,0-.254-.36.757.757,0,0,0-.3-.15,2.453,2.453,0,0,0-.551-.045h-.352Zm-.485.438v-2.986H-2.8a4.279,4.279,0,0,1,.9.064,1.212,1.212,0,0,1,.456.215,1.248,1.248,0,0,1,.393.508,1.772,1.772,0,0,1,.133.708,1.751,1.751,0,0,1-.133.7,1.268,1.268,0,0,1-.393.506,1.218,1.218,0,0,1-.446.215,3.416,3.416,0,0,1-.778.064h-.785Z" transform="translate(3.451 18.13)" fill="#fff"/>
      </g>
      <g id="g1033" transform="translate(107.582 22.988)">
        <path id="path1035" d="M-2.966-7.781h.088a.978.978,0,0,0,.512-.09.364.364,0,0,0,.127-.318.407.407,0,0,0-.136-.348.892.892,0,0,0-.5-.1h-.088ZM-3-7.4v1.336h-.455V-9.053h.677a2.125,2.125,0,0,1,.462.039.727.727,0,0,1,.28.128.712.712,0,0,1,.214.279.923.923,0,0,1,.075.375.837.837,0,0,1-.174.563.762.762,0,0,1-.511.243L-1.4-6.068h-.548L-2.941-7.4Z" transform="translate(3.451 9.054)" fill="#fff"/>
      </g>
      <g id="g1037" transform="translate(109.766 22.87)">
        <path id="path1039" d="M-6.33-11.8H-5.5l-.306-.681c-.018-.044-.036-.093-.055-.15s-.038-.119-.057-.189q-.024.1-.052.183c-.018.056-.037.108-.056.156Zm1.342,1.173-.339-.769H-6.51l-.347.769h-.51l1.446-3.1,1.444,3.1Z" transform="translate(7.366 13.733)" fill="#fff"/>
      </g>
      <g id="g1041" transform="translate(114.067 22.919)">
        <path id="path1043" d="M-15.441-4.863a1.494,1.494,0,0,0-.436-.263,1.339,1.339,0,0,0-.482-.088,1.064,1.064,0,0,0-.8.314,1.115,1.115,0,0,0-.307.814,1.11,1.11,0,0,0,.3.8,1,1,0,0,0,.754.314,1.373,1.373,0,0,0,.5-.094,1.6,1.6,0,0,0,.46-.284V-2.8a1.439,1.439,0,0,1-.426.21,1.731,1.731,0,0,1-.5.069A1.744,1.744,0,0,1-17-2.636a1.469,1.469,0,0,1-.511-.33,1.466,1.466,0,0,1-.336-.5,1.643,1.643,0,0,1-.117-.619,1.627,1.627,0,0,1,.117-.617,1.493,1.493,0,0,1,.34-.506A1.5,1.5,0,0,1-17-5.546a1.68,1.68,0,0,1,.622-.113,1.631,1.631,0,0,1,.5.075,1.761,1.761,0,0,1,.462.231Z" transform="translate(17.968 5.659)" fill="#fff"/>
      </g>
      <g id="g1045" transform="translate(116.898 22.922)">
        <path id="path1047" d="M-16.414-9.568A1.134,1.134,0,0,0-16.5-10a1.111,1.111,0,0,0-.238-.363,1.049,1.049,0,0,0-.35-.242,1.061,1.061,0,0,0-.419-.084,1.075,1.075,0,0,0-.419.083,1.07,1.07,0,0,0-.354.243,1.075,1.075,0,0,0-.237.361,1.15,1.15,0,0,0-.081.432,1.13,1.13,0,0,0,.082.428,1.1,1.1,0,0,0,.237.361,1.067,1.067,0,0,0,.353.243,1.066,1.066,0,0,0,.42.084,1.049,1.049,0,0,0,.415-.084,1.092,1.092,0,0,0,.354-.243,1.115,1.115,0,0,0,.238-.362,1.121,1.121,0,0,0,.083-.427m.506,0a1.538,1.538,0,0,1-.119.6,1.531,1.531,0,0,1-.348.506,1.636,1.636,0,0,1-.52.341A1.6,1.6,0,0,1-17.5-8a1.613,1.613,0,0,1-.615-.119,1.586,1.586,0,0,1-.517-.339,1.522,1.522,0,0,1-.347-.5,1.542,1.542,0,0,1-.119-.6,1.552,1.552,0,0,1,.118-.6,1.539,1.539,0,0,1,.347-.507,1.584,1.584,0,0,1,.518-.339,1.633,1.633,0,0,1,.614-.116,1.621,1.621,0,0,1,.611.116,1.591,1.591,0,0,1,.517.339,1.572,1.572,0,0,1,.348.51,1.54,1.54,0,0,1,.12.6" transform="translate(19.1 11.134)" fill="#fff"/>
      </g>
      <g id="g1049" transform="translate(120.192 22.862)">
        <path id="path1051" d="M-16.637-10.007q-.008-.034-.026-.192-.016-.131-.028-.216a1.483,1.483,0,0,1-.052.2,1.752,1.752,0,0,1-.084.208l-.781,1.591-.781-1.623q-.049-.1-.084-.194c-.024-.062-.045-.124-.062-.185a1.869,1.869,0,0,1-.015.2,2.18,2.18,0,0,1-.04.215l-.32,1.47h-.447l.706-3.112.881,1.884c.014.03.034.079.062.149s.061.155.1.257a3.342,3.342,0,0,1,.135-.327c.016-.035.028-.062.037-.081l.861-1.882.722,3.112h-.451Z" transform="translate(19.36 11.645)" fill="#fff"/>
      </g>
      <g id="g1053" transform="translate(124.083 22.988)">
        <path id="path1055" d="M-2.966-7.632h.125A1.1,1.1,0,0,0-2.3-7.72a.342.342,0,0,0,.135-.309.377.377,0,0,0-.144-.337,1.007,1.007,0,0,0-.529-.1h-.125Zm-.031.4v1.34h-.455V-8.88h.734a2.35,2.35,0,0,1,.48.035.751.751,0,0,1,.268.117.7.7,0,0,1,.22.28.935.935,0,0,1,.079.389.956.956,0,0,1-.079.392.679.679,0,0,1-.22.281.735.735,0,0,1-.268.116,2.4,2.4,0,0,1-.48.035Z" transform="translate(3.451 8.881)" fill="#fff"/>
      </g>
      <g id="g1057" transform="translate(125.503 22.87)">
        <path id="path1059" d="M-6.331-11.8H-5.5l-.306-.681c-.018-.044-.036-.093-.055-.15s-.038-.119-.057-.189q-.024.1-.052.183c-.019.056-.037.108-.056.156Zm1.342,1.173-.339-.769H-6.51l-.347.769h-.51l1.446-3.1,1.444,3.1Z" transform="translate(7.367 13.733)" fill="#fff"/>
      </g>
      <g id="g1061" transform="translate(128.591 22.87)">
        <path id="path1063" d="M0-18.967v-3.1l1.9,1.825q.078.078.157.165t.167.2v-2.07H2.67v3.1L.734-20.709q-.077-.075-.15-.159c-.048-.056-.094-.114-.138-.175v2.076Z" transform="translate(0 22.071)" fill="#fff"/>
      </g>
      <g id="g1065" transform="translate(131.499 22.988)">
        <path id="path1067" d="M-6.144-18.244v-1.366L-7.15-21.23h.51l.626,1.014c.015.026.034.06.056.1s.045.088.068.137c.019-.048.039-.093.06-.135a1.154,1.154,0,0,1,.066-.116l.642-1h.485l-1.028,1.619v1.366Z" transform="translate(7.15 21.23)" fill="#fff"/>
      </g>
    </g>
  </g>
</svg>
