<svg xmlns="http://www.w3.org/2000/svg" width="30" height="30" viewBox="0 0 30 30">
  <g id="Group_3698" data-name="Group 3698" transform="translate(22117 -6047)">
    <g id="exclamation_toast" transform="translate(4 41)">
      <circle id="Ellipse_520" data-name="Ellipse 520" cx="15" cy="15" r="15" transform="translate(-22121 6006)" fill="#ed4337"/>
    </g>
    <path id="Icon_awesome-exclamation" data-name="Icon awesome-exclamation" d="M6.09,13.405a2.482,2.482,0,1,1-2.482-2.482A2.485,2.485,0,0,1,6.09,13.405ZM1.412.782l.422,8.44a.745.745,0,0,0,.744.708H4.637a.745.745,0,0,0,.744-.708L5.8.782A.745.745,0,0,0,5.059,0h-2.9A.745.745,0,0,0,1.412.782Z" transform="translate(-22105.422 6053)" fill="#fbfbfb"/>
  </g>
</svg>
