<svg id="Ellipse_168" data-name="Ellipse 168" xmlns="http://www.w3.org/2000/svg" width="20.201" height="20.161" viewBox="0 0 20.201 20.161">
  <ellipse id="circle2" cx="10.075" cy="10.08" rx="10.075" ry="10.08" fill="none"/>
  <path id="circle4" d="M9.98,0a9.985,9.985,0,1,0,9.98,9.985A9.994,9.994,0,0,0,9.98,0Zm0,1.577a8.408,8.408,0,1,1-8.4,8.408A8.394,8.394,0,0,1,9.98,1.577ZM9.965,4.822a.946.946,0,0,0-.931.959v5.255a.946.946,0,1,0,1.892,0V5.781a.946.946,0,0,0-.96-.959Zm.014,8.316a.946.946,0,1,0,.946.946.946.946,0,0,0-.946-.946Z" transform="translate(0.242)" fill="#f04047"/>
</svg>
