<svg xmlns="http://www.w3.org/2000/svg" width="30" height="26.053" viewBox="0 0 30 26.053">
  <g id="Group_3697" data-name="Group 3697" transform="translate(22111 -6094)">
    <path id="Polygon_1" data-name="Polygon 1" d="M13.267,3.01a2,2,0,0,1,3.466,0L28.274,23.055a2,2,0,0,1-1.733,3H3.459a2,2,0,0,1-1.733-3Z" transform="translate(-22111 6094)" fill="#f4901d"/>
    <path id="Icon_awesome-exclamation" data-name="Icon awesome-exclamation" d="M4.918,10.241a1.9,1.9,0,1,1-1.9-1.9A1.9,1.9,0,0,1,4.918,10.241ZM1.345.6l.322,6.448a.569.569,0,0,0,.568.541H3.808a.569.569,0,0,0,.568-.541L4.7.6A.569.569,0,0,0,4.13,0H1.913A.569.569,0,0,0,1.345.6Z" transform="translate(-22099.021 6103)" fill="#fbfbfb"/>
  </g>
</svg>
