<svg xmlns="http://www.w3.org/2000/svg" width="60" height="60" viewBox="0 0 60 60">
  <g id="Group" transform="translate(0 0)">
    <path id="Path_Copy" data-name="Path Copy" d="M29.856,60A30,30,0,1,1,60,30.144,30.019,30.019,0,0,1,29.856,60Z" fill="#fa5a53" opacity="0.061"/>
    <path id="Subtraction_83" data-name="Subtraction 83" d="M10388,18545a20.005,20.005,0,1,1,14.14-5.859A19.871,19.871,0,0,1,10388,18545Zm-2-14h0v4h4v-4Zm2-16a2,2,0,0,0-2,2v8a2,2,0,1,0,4,0v-8A2,2,0,0,0,10388,18515Z" transform="translate(-10358 -18495)" fill="#fa5a53" stroke="rgba(0,0,0,0)" stroke-miterlimit="10" stroke-width="1"/>
  </g>
</svg>
