<svg xmlns="http://www.w3.org/2000/svg" width="18" height="18.7" viewBox="0 0 18 18.7">
  <g id="Service_icon" transform="translate(-9 -9.05)">
    <path id="Path_13" data-name="Path 13" d="M15.7,20.193H9.49A.5.5,0,0,1,9,19.7V13.49A.5.5,0,0,1,9.49,13H15.7a.5.5,0,0,1,.49.49V19.7A.481.481,0,0,1,15.7,20.193Zm-5.721-.981h5.231V13.981H9.981Z" transform="translate(0 -2.659)" fill="#fff"/>
    <path id="Path_14" data-name="Path 14" d="M37.938,18.809a.492.492,0,0,1-.36-.131L33.2,14.265a.474.474,0,0,1,0-.687L37.611,9.2a.474.474,0,0,1,.687,0l4.381,4.381a.492.492,0,0,1,.131.36.686.686,0,0,1-.131.36L38.3,18.678A.492.492,0,0,1,37.938,18.809Zm-3.694-4.871,3.694,3.694,3.694-3.694-3.694-3.727Z" transform="translate(-15.809)" fill="#fff"/>
    <path id="Path_15" data-name="Path 15" d="M15.857,48.193H9.5A.509.509,0,0,1,9,47.7V41.49A.509.509,0,0,1,9.5,41h6.355a.509.509,0,0,1,.5.49V47.7A.487.487,0,0,1,15.857,48.193ZM10,47.212h5.352V41.981H10Zm15.22.981H18.868a.509.509,0,0,1-.5-.49V41.49a.509.509,0,0,1,.5-.49h6.355a.509.509,0,0,1,.5.49V47.7A.487.487,0,0,1,25.223,48.193Zm-5.854-.981h5.352V41.981H19.369Z" transform="translate(0 -20.443)" fill="#fff"/>
  </g>
</svg>
