<svg id="Group_3" data-name="Group 3" xmlns="http://www.w3.org/2000/svg" width="79" height="83.609" viewBox="0 0 79 83.609">
  <g id="Group" transform="translate(8 14)">
    <path id="Path_Copy" data-name="Path Copy" d="M29.856,60A30,30,0,1,1,60,30.144,30.019,30.019,0,0,1,29.856,60Z" fill="#27be7f" opacity="0.061"/>
    <path id="Subtraction_2" data-name="Subtraction 2" d="M18932.992,10027h-.088a20,20,0,0,1,.1-40h.086a20,20,0,0,1-.1,40Zm-7.039-20.166a1.754,1.754,0,0,0-1.23.487,1.621,1.621,0,0,0-.014,2.369l4.137,4.01a1.8,1.8,0,0,0,2.475.014l9.959-9.446a1.623,1.623,0,0,0,.016-2.373,1.8,1.8,0,0,0-1.25-.494,1.755,1.755,0,0,0-1.229.484l-8.719,8.271-2.9-2.825A1.765,1.765,0,0,0,18925.953,10006.834Z" transform="translate(-18903 -9977)" fill="#14c69e" stroke="rgba(0,0,0,0)" stroke-miterlimit="10" stroke-width="1"/>
  </g>
  <g id="Group_2" data-name="Group 2">
    <ellipse id="Oval" cx="1.6" cy="1.594" rx="1.6" ry="1.594" transform="translate(45 5.986)" fill="#ff61a8"/>
    <ellipse id="Oval_Copy_6" data-name="Oval Copy 6" cx="1.6" cy="1.594" rx="1.6" ry="1.594" transform="translate(21.8 76.812)" fill="#ff61a8"/>
    <ellipse id="Oval_Copy_2" data-name="Oval Copy 2" cx="1.6" cy="1.594" rx="1.6" ry="1.594" transform="translate(70 54.058)" fill="#0387d1"/>
    <ellipse id="Oval_Copy_5" data-name="Oval Copy 5" cx="1.6" cy="1.594" rx="1.6" ry="1.594" transform="translate(0 31.725)" fill="#0387d1"/>
    <ellipse id="Oval_Copy_4" data-name="Oval Copy 4" cx="0.8" cy="0.797" rx="0.8" ry="0.797" transform="translate(1 54.478)" fill="#ff61a8"/>
    <ellipse id="Oval_Copy_9" data-name="Oval Copy 9" cx="0.8" cy="0.797" rx="0.8" ry="0.797" transform="translate(57.8 1.986)" fill="#ff61a8"/>
    <ellipse id="Oval_Copy_13" data-name="Oval Copy 13" cx="0.8" cy="0.797" rx="0.8" ry="0.797" transform="translate(77.4 35.304)" fill="#ff61a8"/>
    <ellipse id="Oval_Copy_3" data-name="Oval Copy 3" cx="0.8" cy="0.797" rx="0.8" ry="0.797" transform="translate(65.8 17.754)" fill="#0387d1"/>
    <ellipse id="Oval_Copy_8" data-name="Oval Copy 8" cx="0.8" cy="0.797" rx="0.8" ry="0.797" transform="translate(65.2 71.406)" fill="#ff61a8"/>
    <ellipse id="Oval_Copy_11" data-name="Oval Copy 11" cx="0.8" cy="0.797" rx="0.8" ry="0.797" transform="translate(1.8 16.362)" fill="#ff61a8"/>
    <ellipse id="Oval_Copy_7" data-name="Oval Copy 7" cx="0.8" cy="0.797" rx="0.8" ry="0.797" transform="translate(21.6 6.362)" fill="#0387d1"/>
    <ellipse id="Oval_Copy_12" data-name="Oval Copy 12" cx="0.8" cy="0.797" rx="0.8" ry="0.797" transform="translate(7.2 69.029)" fill="#0387d1"/>
    <ellipse id="Oval_Copy_14" data-name="Oval Copy 14" cx="0.8" cy="0.797" rx="0.8" ry="0.797" transform="translate(46.6 82.014)" fill="#0387d1"/>
    <ellipse id="Oval_Copy_10" data-name="Oval Copy 10" cx="0.8" cy="0.797" rx="0.8" ry="0.797" transform="translate(37.8 0)" fill="#0387d1"/>
  </g>
</svg>
